<mxfile host="Electron" modified="2023-05-08T13:03:26.670Z" agent="Mozilla/5.0 (X11; Linux x86_64) AppleWebKit/537.36 (KHTML, like Gecko) draw.io/21.2.8 Chrome/112.0.5615.165 Electron/24.2.0 Safari/537.36" etag="DXtKrrJdJnJAfY3H3BrK" version="21.2.8" type="device">
  <diagram name="Page-1" id="w8cN-r3wGZXz7W5xho0f">
    <mxGraphModel dx="1958" dy="1695" grid="1" gridSize="10" guides="1" tooltips="1" connect="1" arrows="1" fold="1" page="0" pageScale="1" pageWidth="827" pageHeight="1169" math="0" shadow="0">
      <root>
        <mxCell id="0" />
        <mxCell id="1" parent="0" />
        <mxCell id="7hP3qgeIwIzLO_15ZlZ7-7" value="aexp" style="rounded=0;whiteSpace=wrap;html=1;" parent="1" vertex="1">
          <mxGeometry x="200" y="480" width="40" height="40" as="geometry" />
        </mxCell>
        <mxCell id="7hP3qgeIwIzLO_15ZlZ7-8" value="if" style="rounded=0;whiteSpace=wrap;html=1;fontStyle=1" parent="1" vertex="1">
          <mxGeometry x="240" y="680" width="40" height="40" as="geometry" />
        </mxCell>
        <mxCell id="7hP3qgeIwIzLO_15ZlZ7-82" style="edgeStyle=orthogonalEdgeStyle;rounded=0;orthogonalLoop=1;jettySize=auto;html=1;entryX=0.5;entryY=0;entryDx=0;entryDy=0;" parent="1" source="7hP3qgeIwIzLO_15ZlZ7-10" target="7hP3qgeIwIzLO_15ZlZ7-13" edge="1">
          <mxGeometry relative="1" as="geometry">
            <Array as="points">
              <mxPoint x="300" y="660" />
              <mxPoint x="420" y="660" />
            </Array>
          </mxGeometry>
        </mxCell>
        <mxCell id="7hP3qgeIwIzLO_15ZlZ7-10" value="" style="rounded=0;whiteSpace=wrap;html=1;" parent="1" vertex="1">
          <mxGeometry x="280" y="680" width="40" height="40" as="geometry" />
        </mxCell>
        <mxCell id="7hP3qgeIwIzLO_15ZlZ7-11" value="ef" style="rounded=0;whiteSpace=wrap;html=1;" parent="1" vertex="1">
          <mxGeometry x="320" y="680" width="40" height="40" as="geometry" />
        </mxCell>
        <mxCell id="7hP3qgeIwIzLO_15ZlZ7-12" value="..." style="text;html=1;strokeColor=none;fillColor=none;align=center;verticalAlign=middle;whiteSpace=wrap;rounded=0;" parent="1" vertex="1">
          <mxGeometry x="360" y="680" width="40" height="40" as="geometry" />
        </mxCell>
        <mxCell id="7hP3qgeIwIzLO_15ZlZ7-13" value="et" style="rounded=0;whiteSpace=wrap;html=1;" parent="1" vertex="1">
          <mxGeometry x="400" y="680" width="40" height="40" as="geometry" />
        </mxCell>
        <mxCell id="7hP3qgeIwIzLO_15ZlZ7-15" value="..." style="text;html=1;strokeColor=none;fillColor=none;align=center;verticalAlign=middle;whiteSpace=wrap;rounded=0;" parent="1" vertex="1">
          <mxGeometry x="440" y="680" width="40" height="40" as="geometry" />
        </mxCell>
        <mxCell id="7hP3qgeIwIzLO_15ZlZ7-16" value="let" style="rounded=0;whiteSpace=wrap;html=1;fontStyle=1" parent="1" vertex="1">
          <mxGeometry x="200" y="800" width="40" height="40" as="geometry" />
        </mxCell>
        <mxCell id="7hP3qgeIwIzLO_15ZlZ7-17" value="exp" style="rounded=0;whiteSpace=wrap;html=1;" parent="1" vertex="1">
          <mxGeometry x="280" y="800" width="40" height="40" as="geometry" />
        </mxCell>
        <mxCell id="7hP3qgeIwIzLO_15ZlZ7-18" value="body" style="rounded=0;whiteSpace=wrap;html=1;" parent="1" vertex="1">
          <mxGeometry x="320" y="800" width="40" height="40" as="geometry" />
        </mxCell>
        <mxCell id="7hP3qgeIwIzLO_15ZlZ7-25" value="call/cc" style="rounded=0;whiteSpace=wrap;html=1;fontStyle=1" parent="1" vertex="1">
          <mxGeometry x="240" y="1120" width="40" height="40" as="geometry" />
        </mxCell>
        <mxCell id="7hP3qgeIwIzLO_15ZlZ7-26" value="aexp" style="rounded=0;whiteSpace=wrap;html=1;" parent="1" vertex="1">
          <mxGeometry x="200" y="1120" width="40" height="40" as="geometry" />
        </mxCell>
        <mxCell id="7hP3qgeIwIzLO_15ZlZ7-27" value="amb" style="rounded=0;whiteSpace=wrap;html=1;fontStyle=1" parent="1" vertex="1">
          <mxGeometry x="200" y="1280" width="40" height="40" as="geometry" />
        </mxCell>
        <mxCell id="7hP3qgeIwIzLO_15ZlZ7-33" style="edgeStyle=orthogonalEdgeStyle;rounded=0;orthogonalLoop=1;jettySize=auto;html=1;entryX=0.5;entryY=0;entryDx=0;entryDy=0;" parent="1" source="7hP3qgeIwIzLO_15ZlZ7-28" target="7hP3qgeIwIzLO_15ZlZ7-31" edge="1">
          <mxGeometry relative="1" as="geometry">
            <Array as="points">
              <mxPoint x="260" y="1260" />
              <mxPoint x="380" y="1260" />
            </Array>
          </mxGeometry>
        </mxCell>
        <mxCell id="7hP3qgeIwIzLO_15ZlZ7-28" value="" style="rounded=0;whiteSpace=wrap;html=1;" parent="1" vertex="1">
          <mxGeometry x="240" y="1280" width="40" height="40" as="geometry" />
        </mxCell>
        <mxCell id="7hP3qgeIwIzLO_15ZlZ7-29" value="e1" style="rounded=0;whiteSpace=wrap;html=1;" parent="1" vertex="1">
          <mxGeometry x="280" y="1280" width="40" height="40" as="geometry" />
        </mxCell>
        <mxCell id="7hP3qgeIwIzLO_15ZlZ7-30" value="..." style="text;html=1;strokeColor=none;fillColor=none;align=center;verticalAlign=middle;whiteSpace=wrap;rounded=0;" parent="1" vertex="1">
          <mxGeometry x="320" y="1280" width="40" height="40" as="geometry" />
        </mxCell>
        <mxCell id="7hP3qgeIwIzLO_15ZlZ7-31" value="e2" style="rounded=0;whiteSpace=wrap;html=1;" parent="1" vertex="1">
          <mxGeometry x="360" y="1280" width="40" height="40" as="geometry" />
        </mxCell>
        <mxCell id="7hP3qgeIwIzLO_15ZlZ7-32" value="..." style="text;html=1;strokeColor=none;fillColor=none;align=center;verticalAlign=middle;whiteSpace=wrap;rounded=0;" parent="1" vertex="1">
          <mxGeometry x="400" y="1280" width="40" height="40" as="geometry" />
        </mxCell>
        <mxCell id="7hP3qgeIwIzLO_15ZlZ7-34" value="back" style="rounded=0;whiteSpace=wrap;html=1;fontStyle=1" parent="1" vertex="1">
          <mxGeometry x="200" y="1400" width="40" height="40" as="geometry" />
        </mxCell>
        <mxCell id="7hP3qgeIwIzLO_15ZlZ7-35" value="var" style="rounded=0;whiteSpace=wrap;html=1;fontStyle=1" parent="1" vertex="1">
          <mxGeometry x="200" y="-360" width="40" height="40" as="geometry" />
        </mxCell>
        <mxCell id="7hP3qgeIwIzLO_15ZlZ7-36" value="int" style="rounded=0;whiteSpace=wrap;html=1;fontStyle=1" parent="1" vertex="1">
          <mxGeometry x="200" y="-280" width="40" height="40" as="geometry" />
        </mxCell>
        <mxCell id="7hP3qgeIwIzLO_15ZlZ7-37" value="true" style="rounded=0;whiteSpace=wrap;html=1;fontStyle=1" parent="1" vertex="1">
          <mxGeometry x="200" y="-200" width="40" height="40" as="geometry" />
        </mxCell>
        <mxCell id="7hP3qgeIwIzLO_15ZlZ7-38" value="false" style="rounded=0;whiteSpace=wrap;html=1;fontStyle=1" parent="1" vertex="1">
          <mxGeometry x="200" y="-120" width="40" height="40" as="geometry" />
        </mxCell>
        <mxCell id="7hP3qgeIwIzLO_15ZlZ7-39" value="Î»" style="rounded=0;whiteSpace=wrap;html=1;fontStyle=1" parent="1" vertex="1">
          <mxGeometry x="200" y="-40" width="40" height="40" as="geometry" />
        </mxCell>
        <mxCell id="7hP3qgeIwIzLO_15ZlZ7-40" value="nvar" style="rounded=0;whiteSpace=wrap;html=1;" parent="1" vertex="1">
          <mxGeometry x="240" y="-40" width="40" height="40" as="geometry" />
        </mxCell>
        <mxCell id="7hP3qgeIwIzLO_15ZlZ7-41" value="exp" style="rounded=0;whiteSpace=wrap;html=1;" parent="1" vertex="1">
          <mxGeometry x="280" y="-40" width="40" height="40" as="geometry" />
        </mxCell>
        <mxCell id="7hP3qgeIwIzLO_15ZlZ7-42" value="prim" style="rounded=0;whiteSpace=wrap;html=1;fontStyle=1" parent="1" vertex="1">
          <mxGeometry x="280" y="40" width="40" height="40" as="geometry" />
        </mxCell>
        <mxCell id="7hP3qgeIwIzLO_15ZlZ7-44" value="aexp&lt;sub&gt;1&lt;/sub&gt;" style="rounded=0;whiteSpace=wrap;html=1;" parent="1" vertex="1">
          <mxGeometry x="200" y="40" width="40" height="40" as="geometry" />
        </mxCell>
        <mxCell id="7hP3qgeIwIzLO_15ZlZ7-45" value="aexp&lt;sub&gt;2&lt;/sub&gt;" style="rounded=0;whiteSpace=wrap;html=1;" parent="1" vertex="1">
          <mxGeometry x="240" y="40" width="40" height="40" as="geometry" />
        </mxCell>
        <mxCell id="7hP3qgeIwIzLO_15ZlZ7-46" value="..." style="text;html=1;strokeColor=none;fillColor=none;align=center;verticalAlign=middle;whiteSpace=wrap;rounded=0;" parent="1" vertex="1">
          <mxGeometry x="320" y="-40" width="40" height="40" as="geometry" />
        </mxCell>
        <mxCell id="7hP3qgeIwIzLO_15ZlZ7-48" value="aexp" style="text;html=1;strokeColor=none;fillColor=none;align=center;verticalAlign=middle;whiteSpace=wrap;rounded=0;fontStyle=1;fontSize=14;" parent="1" vertex="1">
          <mxGeometry x="160" y="-400" width="60" height="30" as="geometry" />
        </mxCell>
        <mxCell id="7hP3qgeIwIzLO_15ZlZ7-49" value="exp" style="text;html=1;strokeColor=none;fillColor=none;align=center;verticalAlign=middle;whiteSpace=wrap;rounded=0;fontStyle=1;fontSize=14;" parent="1" vertex="1">
          <mxGeometry x="160" y="200" width="60" height="30" as="geometry" />
        </mxCell>
        <mxCell id="7hP3qgeIwIzLO_15ZlZ7-50" value="frame" style="rounded=0;whiteSpace=wrap;html=1;" parent="1" vertex="1">
          <mxGeometry x="240" y="-360" width="40" height="40" as="geometry" />
        </mxCell>
        <mxCell id="7hP3qgeIwIzLO_15ZlZ7-51" value="index" style="rounded=0;whiteSpace=wrap;html=1;" parent="1" vertex="1">
          <mxGeometry x="280" y="-360" width="40" height="40" as="geometry" />
        </mxCell>
        <mxCell id="7hP3qgeIwIzLO_15ZlZ7-52" value="hi" style="rounded=0;whiteSpace=wrap;html=1;" parent="1" vertex="1">
          <mxGeometry x="240" y="-280" width="40" height="40" as="geometry" />
        </mxCell>
        <mxCell id="7hP3qgeIwIzLO_15ZlZ7-53" value="lo" style="rounded=0;whiteSpace=wrap;html=1;" parent="1" vertex="1">
          <mxGeometry x="280" y="-280" width="40" height="40" as="geometry" />
        </mxCell>
        <mxCell id="7hP3qgeIwIzLO_15ZlZ7-9" value="aexp" style="rounded=0;whiteSpace=wrap;html=1;" parent="1" vertex="1">
          <mxGeometry x="200" y="680" width="40" height="40" as="geometry" />
        </mxCell>
        <mxCell id="7hP3qgeIwIzLO_15ZlZ7-62" style="edgeStyle=orthogonalEdgeStyle;rounded=0;orthogonalLoop=1;jettySize=auto;html=1;entryX=0.5;entryY=0;entryDx=0;entryDy=0;" parent="1" source="7hP3qgeIwIzLO_15ZlZ7-61" target="7hP3qgeIwIzLO_15ZlZ7-18" edge="1">
          <mxGeometry relative="1" as="geometry">
            <Array as="points">
              <mxPoint x="260" y="780" />
              <mxPoint x="340" y="780" />
            </Array>
          </mxGeometry>
        </mxCell>
        <mxCell id="7hP3qgeIwIzLO_15ZlZ7-61" value="" style="rounded=0;whiteSpace=wrap;html=1;" parent="1" vertex="1">
          <mxGeometry x="240" y="800" width="40" height="40" as="geometry" />
        </mxCell>
        <mxCell id="7hP3qgeIwIzLO_15ZlZ7-66" value="push(lookup(frame, index, env))" style="rounded=0;whiteSpace=wrap;html=1;fontFamily=Courier New;align=left;spacingLeft=3;" parent="1" vertex="1">
          <mxGeometry x="480" y="-360" width="240" height="40" as="geometry" />
        </mxCell>
        <mxCell id="7hP3qgeIwIzLO_15ZlZ7-67" value="push(hi&amp;lt;&amp;lt;8 | lo)" style="rounded=0;whiteSpace=wrap;html=1;fontFamily=Courier New;align=left;spacingLeft=3;" parent="1" vertex="1">
          <mxGeometry x="480" y="-280" width="240" height="40" as="geometry" />
        </mxCell>
        <mxCell id="7hP3qgeIwIzLO_15ZlZ7-68" value="push(1)" style="rounded=0;whiteSpace=wrap;html=1;fontFamily=Courier New;align=left;spacingLeft=3;" parent="1" vertex="1">
          <mxGeometry x="480" y="-200" width="240" height="40" as="geometry" />
        </mxCell>
        <mxCell id="7hP3qgeIwIzLO_15ZlZ7-69" value="push(0)" style="rounded=0;whiteSpace=wrap;html=1;fontFamily=Courier New;align=left;spacingLeft=3;" parent="1" vertex="1">
          <mxGeometry x="480" y="-120" width="240" height="40" as="geometry" />
        </mxCell>
        <mxCell id="7hP3qgeIwIzLO_15ZlZ7-70" value="push(clo(nvar, addr(exp), env))" style="rounded=0;whiteSpace=wrap;html=1;fontFamily=Courier New;align=left;spacingLeft=3;" parent="1" vertex="1">
          <mxGeometry x="480" y="-40" width="240" height="40" as="geometry" />
        </mxCell>
        <mxCell id="7hP3qgeIwIzLO_15ZlZ7-71" value="push(O(prim)(pop(), pop()))" style="rounded=0;whiteSpace=wrap;html=1;fontFamily=Courier New;align=left;spacingLeft=3;" parent="1" vertex="1">
          <mxGeometry x="480" y="40" width="240" height="40" as="geometry" />
        </mxCell>
        <mxCell id="7hP3qgeIwIzLO_15ZlZ7-72" value="aexp&lt;span style=&quot;font-size: 10px;&quot;&gt;&lt;sub&gt;n&lt;/sub&gt;&lt;/span&gt;" style="rounded=0;whiteSpace=wrap;html=1;" parent="1" vertex="1">
          <mxGeometry x="280" y="240" width="40" height="40" as="geometry" />
        </mxCell>
        <mxCell id="7hP3qgeIwIzLO_15ZlZ7-74" value="..." style="text;html=1;strokeColor=none;fillColor=none;align=center;verticalAlign=middle;whiteSpace=wrap;rounded=0;" parent="1" vertex="1">
          <mxGeometry x="240" y="240" width="40" height="40" as="geometry" />
        </mxCell>
        <mxCell id="7hP3qgeIwIzLO_15ZlZ7-75" value="aexp&lt;sub&gt;1&lt;/sub&gt;" style="rounded=0;whiteSpace=wrap;html=1;" parent="1" vertex="1">
          <mxGeometry x="200" y="240" width="40" height="40" as="geometry" />
        </mxCell>
        <mxCell id="7hP3qgeIwIzLO_15ZlZ7-76" value="apply" style="rounded=0;whiteSpace=wrap;html=1;fontStyle=1" parent="1" vertex="1">
          <mxGeometry x="360" y="240" width="40" height="40" as="geometry" />
        </mxCell>
        <mxCell id="7hP3qgeIwIzLO_15ZlZ7-77" value="aexp" style="rounded=0;whiteSpace=wrap;html=1;" parent="1" vertex="1">
          <mxGeometry x="320" y="240" width="40" height="40" as="geometry" />
        </mxCell>
        <mxCell id="7hP3qgeIwIzLO_15ZlZ7-78" value="clo(nargs, addr, env) = pop();&lt;br&gt;env&#39; = extend(env, pop(nargs));&lt;br&gt;(addr, env&#39;, K, F)" style="rounded=0;whiteSpace=wrap;html=1;fontFamily=Courier New;align=left;spacingLeft=3;verticalAlign=top;" parent="1" vertex="1">
          <mxGeometry x="480" y="240" width="320" height="60" as="geometry" />
        </mxCell>
        <mxCell id="7hP3qgeIwIzLO_15ZlZ7-79" value="return" style="rounded=0;whiteSpace=wrap;html=1;fontStyle=1" parent="1" vertex="1">
          <mxGeometry x="240" y="480" width="40" height="40" as="geometry" />
        </mxCell>
        <mxCell id="7hP3qgeIwIzLO_15ZlZ7-80" value="cont(letk(body, env, k&#39;)) = pop();&lt;br&gt;env&#39; = extend(env, pop());&lt;br&gt;(body, env&#39;, k&#39;, F)" style="rounded=0;whiteSpace=wrap;html=1;fontFamily=Courier New;align=left;spacingLeft=3;verticalAlign=top;" parent="1" vertex="1">
          <mxGeometry x="480" y="300" width="320" height="60" as="geometry" />
        </mxCell>
        <mxCell id="7hP3qgeIwIzLO_15ZlZ7-83" value="if (pop()) (addr(et), E, K, F)&lt;br&gt;else (addr(ef), E, K, F)" style="rounded=0;whiteSpace=wrap;html=1;fontFamily=Courier New;align=left;spacingLeft=3;verticalAlign=top;" parent="1" vertex="1">
          <mxGeometry x="480" y="680" width="240" height="60" as="geometry" />
        </mxCell>
        <mxCell id="7hP3qgeIwIzLO_15ZlZ7-85" value="..." style="text;html=1;strokeColor=none;fillColor=none;align=center;verticalAlign=middle;whiteSpace=wrap;rounded=0;" parent="1" vertex="1">
          <mxGeometry x="360" y="800" width="40" height="40" as="geometry" />
        </mxCell>
        <mxCell id="7hP3qgeIwIzLO_15ZlZ7-86" value="(addr(exp), E, letk(addr(body), E, K), F)" style="rounded=0;whiteSpace=wrap;html=1;fontFamily=Courier New;align=left;spacingLeft=3;verticalAlign=top;" parent="1" vertex="1">
          <mxGeometry x="480" y="800" width="320" height="60" as="geometry" />
        </mxCell>
        <mxCell id="10SUo7ZiS3TdZH6GMaKD-1" value="cont(halt) = pop();&lt;br&gt;(DONE, env, halt, F)" style="rounded=0;whiteSpace=wrap;html=1;fontFamily=Courier New;align=left;spacingLeft=3;verticalAlign=top;" vertex="1" parent="1">
          <mxGeometry x="480" y="360" width="320" height="60" as="geometry" />
        </mxCell>
        <mxCell id="10SUo7ZiS3TdZH6GMaKD-2" value="letk(body, env, k&#39;) = K;&lt;br&gt;env&#39; = extend(env, pop());&lt;br&gt;(body, env&#39;, k&#39;, F)" style="rounded=0;whiteSpace=wrap;html=1;fontFamily=Courier New;align=left;spacingLeft=3;verticalAlign=top;" vertex="1" parent="1">
          <mxGeometry x="480" y="480" width="320" height="60" as="geometry" />
        </mxCell>
        <mxCell id="10SUo7ZiS3TdZH6GMaKD-3" value="halt = K;&lt;br&gt;RESULT = pop();&lt;br&gt;(DONE, env, halt, F)" style="rounded=0;whiteSpace=wrap;html=1;fontFamily=Courier New;align=left;spacingLeft=3;verticalAlign=top;" vertex="1" parent="1">
          <mxGeometry x="480" y="540" width="320" height="60" as="geometry" />
        </mxCell>
        <mxCell id="10SUo7ZiS3TdZH6GMaKD-4" value="aexp&lt;sub&gt;1&lt;/sub&gt;" style="rounded=0;whiteSpace=wrap;html=1;" vertex="1" parent="1">
          <mxGeometry x="200" y="1000" width="40" height="40" as="geometry" />
        </mxCell>
        <mxCell id="10SUo7ZiS3TdZH6GMaKD-5" value="..." style="text;html=1;strokeColor=none;fillColor=none;align=center;verticalAlign=middle;whiteSpace=wrap;rounded=0;" vertex="1" parent="1">
          <mxGeometry x="240" y="1000" width="40" height="40" as="geometry" />
        </mxCell>
        <mxCell id="10SUo7ZiS3TdZH6GMaKD-6" value="aexp&lt;span style=&quot;font-size: 10px;&quot;&gt;&lt;sub&gt;n&lt;/sub&gt;&lt;/span&gt;" style="rounded=0;whiteSpace=wrap;html=1;" vertex="1" parent="1">
          <mxGeometry x="280" y="1000" width="40" height="40" as="geometry" />
        </mxCell>
        <mxCell id="10SUo7ZiS3TdZH6GMaKD-7" value="nargs" style="rounded=0;whiteSpace=wrap;html=1;" vertex="1" parent="1">
          <mxGeometry x="360" y="1000" width="40" height="40" as="geometry" />
        </mxCell>
        <mxCell id="10SUo7ZiS3TdZH6GMaKD-8" value="letrec" style="rounded=0;whiteSpace=wrap;html=1;fontStyle=1" vertex="1" parent="1">
          <mxGeometry x="320" y="1000" width="40" height="40" as="geometry" />
        </mxCell>
        <mxCell id="10SUo7ZiS3TdZH6GMaKD-9" value="env&#39; &amp;lt;== pop(nargs); // memcpy(stack, env&#39;)&lt;br&gt;(addr(body), env&#39; K, F)" style="rounded=0;whiteSpace=wrap;html=1;fontFamily=Courier New;align=left;spacingLeft=3;verticalAlign=top;" vertex="1" parent="1">
          <mxGeometry x="480" y="1000" width="320" height="60" as="geometry" />
        </mxCell>
        <mxCell id="10SUo7ZiS3TdZH6GMaKD-11" style="edgeStyle=orthogonalEdgeStyle;rounded=0;orthogonalLoop=1;jettySize=auto;html=1;entryX=0;entryY=0.5;entryDx=0;entryDy=0;endArrow=none;endFill=0;exitX=1;exitY=0.5;exitDx=0;exitDy=0;" edge="1" parent="1" source="10SUo7ZiS3TdZH6GMaKD-13" target="10SUo7ZiS3TdZH6GMaKD-4">
          <mxGeometry relative="1" as="geometry" />
        </mxCell>
        <mxCell id="10SUo7ZiS3TdZH6GMaKD-10" value="env" style="rounded=0;whiteSpace=wrap;html=1;fontStyle=1" vertex="1" parent="1">
          <mxGeometry x="200" y="920" width="40" height="40" as="geometry" />
        </mxCell>
        <mxCell id="10SUo7ZiS3TdZH6GMaKD-12" value="env&#39; = extend(env, nargs);" style="rounded=0;whiteSpace=wrap;html=1;fontFamily=Courier New;align=left;spacingLeft=3;verticalAlign=top;" vertex="1" parent="1">
          <mxGeometry x="480" y="920" width="320" height="60" as="geometry" />
        </mxCell>
        <mxCell id="10SUo7ZiS3TdZH6GMaKD-13" value="nargs" style="rounded=0;whiteSpace=wrap;html=1;" vertex="1" parent="1">
          <mxGeometry x="240" y="920" width="40" height="40" as="geometry" />
        </mxCell>
        <mxCell id="10SUo7ZiS3TdZH6GMaKD-14" value="body" style="rounded=0;whiteSpace=wrap;html=1;" vertex="1" parent="1">
          <mxGeometry x="400" y="1000" width="40" height="40" as="geometry" />
        </mxCell>
        <mxCell id="10SUo7ZiS3TdZH6GMaKD-15" value="K == letk(addr, env&#39;, k&#39;);&lt;br&gt;env&#39;&#39; = extend(env&#39; pop());&lt;br&gt;(addr, env&#39;&#39;, k&#39;, F)" style="rounded=0;whiteSpace=wrap;html=1;fontFamily=Courier New;align=left;spacingLeft=3;verticalAlign=top;" vertex="1" parent="1">
          <mxGeometry x="480" y="1120" width="320" height="60" as="geometry" />
        </mxCell>
        <mxCell id="10SUo7ZiS3TdZH6GMaKD-16" value="(addr(e1), E, K, backtrack(addr(e2), E, K, F))" style="rounded=0;whiteSpace=wrap;html=1;fontFamily=Courier New;align=left;spacingLeft=3;verticalAlign=top;" vertex="1" parent="1">
          <mxGeometry x="480" y="1280" width="360" height="60" as="geometry" />
        </mxCell>
        <mxCell id="10SUo7ZiS3TdZH6GMaKD-17" value="F == backtrack(addr, E, K, F&#39;)&lt;br&gt;(addr, E, K, F&#39;)" style="rounded=0;whiteSpace=wrap;html=1;fontFamily=Courier New;align=left;spacingLeft=3;verticalAlign=top;" vertex="1" parent="1">
          <mxGeometry x="480" y="1400" width="360" height="60" as="geometry" />
        </mxCell>
        <mxCell id="10SUo7ZiS3TdZH6GMaKD-18" value="F == end&lt;br&gt;(addr(DONE), E, K, F)" style="rounded=0;whiteSpace=wrap;html=1;fontFamily=Courier New;align=left;spacingLeft=3;verticalAlign=top;" vertex="1" parent="1">
          <mxGeometry x="480" y="1460" width="360" height="60" as="geometry" />
        </mxCell>
      </root>
    </mxGraphModel>
  </diagram>
</mxfile>
